<svg viewBox="0 0 1513 400" xmlns="http://www.w3.org/2000/svg"><g><g><g><g><g><line x1="37.375" y1="377" x2="32.375" y2="377" style="visibility: inherit;" fill="rgb(0, 0, 0)" stroke="rgb(204, 204, 204)" stroke-width="1px"></line><line x1="37.375" y1="329.875" x2="32.375" y2="329.875" style="visibility: inherit;" fill="rgb(0, 0, 0)" stroke="rgb(204, 204, 204)" stroke-width="1px"></line><line x1="37.375" y1="282.75" x2="32.375" y2="282.75" style="visibility: inherit;" fill="rgb(0, 0, 0)" stroke="rgb(204, 204, 204)" stroke-width="1px"></line><line x1="37.375" y1="235.625" x2="32.375" y2="235.625" style="visibility: inherit;" fill="rgb(0, 0, 0)" stroke="rgb(204, 204, 204)" stroke-width="1px"></line><line x1="37.375" y1="188.5" x2="32.375" y2="188.5" style="visibility: inherit;" fill="rgb(0, 0, 0)" stroke="rgb(204, 204, 204)" stroke-width="1px"></line><line x1="37.375" y1="141.375" x2="32.375" y2="141.375" style="visibility: inherit;" fill="rgb(0, 0, 0)" stroke="rgb(204, 204, 204)" stroke-width="1px"></line><line x1="37.375" y1="94.25000000000004" x2="32.375" y2="94.25000000000004" style="visibility: inherit;" fill="rgb(0, 0, 0)" stroke="rgb(204, 204, 204)" stroke-width="1px"></line><line x1="37.375" y1="47.12500000000004" x2="32.375" y2="47.12500000000004" style="visibility: inherit;" fill="rgb(0, 0, 0)" stroke="rgb(204, 204, 204)" stroke-width="1px"></line><line x1="37.375" y1="0" x2="32.375" y2="0" style="visibility: inherit;" fill="rgb(0, 0, 0)" stroke="rgb(204, 204, 204)" stroke-width="1px"></line></g><g transform="translate(27.375, 0)"><text x="0" y="377" dx="0em" dy="0.3em" style="text-anchor: end; visibility: hidden; font-family: Roboto, sans-serif; font-size: 12px; font-weight: 200;" fill="rgb(50, 49, 63)" stroke="none" stroke-width="1px">0</text><text x="0" y="329.875" dx="0em" dy="0.3em" style="text-anchor: end; visibility: inherit; font-family: Roboto, sans-serif; font-size: 12px; font-weight: 200;" fill="rgb(50, 49, 63)" stroke="none" stroke-width="1px">0.1</text><text x="0" y="282.75" dx="0em" dy="0.3em" style="text-anchor: end; visibility: inherit; font-family: Roboto, sans-serif; font-size: 12px; font-weight: 200;" fill="rgb(50, 49, 63)" stroke="none" stroke-width="1px">0.2</text><text x="0" y="235.625" dx="0em" dy="0.3em" style="text-anchor: end; visibility: inherit; font-family: Roboto, sans-serif; font-size: 12px; font-weight: 200;" fill="rgb(50, 49, 63)" stroke="none" stroke-width="1px">0.3</text><text x="0" y="188.5" dx="0em" dy="0.3em" style="text-anchor: end; visibility: inherit; font-family: Roboto, sans-serif; font-size: 12px; font-weight: 200;" fill="rgb(50, 49, 63)" stroke="none" stroke-width="1px">0.4</text><text x="0" y="141.375" dx="0em" dy="0.3em" style="text-anchor: end; visibility: inherit; font-family: Roboto, sans-serif; font-size: 12px; font-weight: 200;" fill="rgb(50, 49, 63)" stroke="none" stroke-width="1px">0.5</text><text x="0" y="94.25000000000004" dx="0em" dy="0.3em" style="text-anchor: end; visibility: inherit; font-family: Roboto, sans-serif; font-size: 12px; font-weight: 200;" fill="rgb(50, 49, 63)" stroke="none" stroke-width="1px">0.6</text><text x="0" y="47.12500000000004" dx="0em" dy="0.3em" style="text-anchor: end; visibility: inherit; font-family: Roboto, sans-serif; font-size: 12px; font-weight: 200;" fill="rgb(50, 49, 63)" stroke="none" stroke-width="1px">0.7</text><text x="0" y="0" dx="0em" dy="0.3em" style="text-anchor: end; visibility: hidden; font-family: Roboto, sans-serif; font-size: 12px; font-weight: 200;" fill="rgb(50, 49, 63)" stroke="none" stroke-width="1px">0.8</text></g><line x1="37.375" y1="0" x2="37.375" y2="377" fill="rgb(0, 0, 0)" stroke="rgb(204, 204, 204)" stroke-width="1px"></line></g></g><g transform="translate(37, 0)" clip-path="url(#clip_0)"><clipPath id="clip_0"><rect width="1475" height="377"></rect></clipPath><g><g><g><line x1="0" y1="0" x2="0" y2="377" fill="rgb(0, 0, 0)" stroke="rgb(60, 60, 60)" stroke-width="1px" opacity="0.25"></line><line x1="134.14772727272728" y1="0" x2="134.14772727272728" y2="377" fill="rgb(0, 0, 0)" stroke="rgb(60, 60, 60)" stroke-width="1px" opacity="0.25"></line><line x1="268.29545454545456" y1="0" x2="268.29545454545456" y2="377" fill="rgb(0, 0, 0)" stroke="rgb(60, 60, 60)" stroke-width="1px" opacity="0.25"></line><line x1="402.4431818181818" y1="0" x2="402.4431818181818" y2="377" fill="rgb(0, 0, 0)" stroke="rgb(60, 60, 60)" stroke-width="1px" opacity="0.25"></line><line x1="536.5909090909091" y1="0" x2="536.5909090909091" y2="377" fill="rgb(0, 0, 0)" stroke="rgb(60, 60, 60)" stroke-width="1px" opacity="0.25"></line><line x1="670.7386363636364" y1="0" x2="670.7386363636364" y2="377" fill="rgb(0, 0, 0)" stroke="rgb(60, 60, 60)" stroke-width="1px" opacity="0.25"></line><line x1="804.8863636363636" y1="0" x2="804.8863636363636" y2="377" fill="rgb(0, 0, 0)" stroke="rgb(60, 60, 60)" stroke-width="1px" opacity="0.25"></line><line x1="939.0340909090909" y1="0" x2="939.0340909090909" y2="377" fill="rgb(0, 0, 0)" stroke="rgb(60, 60, 60)" stroke-width="1px" opacity="0.25"></line><line x1="1073.1818181818182" y1="0" x2="1073.1818181818182" y2="377" fill="rgb(0, 0, 0)" stroke="rgb(60, 60, 60)" stroke-width="1px" opacity="0.25"></line><line x1="1207.3295454545455" y1="0" x2="1207.3295454545455" y2="377" fill="rgb(0, 0, 0)" stroke="rgb(60, 60, 60)" stroke-width="1px" opacity="0.25"></line><line x1="1341.4772727272727" y1="0" x2="1341.4772727272727" y2="377" fill="rgb(0, 0, 0)" stroke="rgb(60, 60, 60)" stroke-width="1px" opacity="0.25"></line><line x1="1475.625" y1="0" x2="1475.625" y2="377" fill="rgb(0, 0, 0)" stroke="rgb(60, 60, 60)" stroke-width="1px" opacity="0.25"></line></g><g><line x1="0" y1="377" x2="1475.625" y2="377" fill="rgb(0, 0, 0)" stroke="rgb(60, 60, 60)" stroke-width="1px" opacity="0.25"></line><line x1="0" y1="329.875" x2="1475.625" y2="329.875" fill="rgb(0, 0, 0)" stroke="rgb(60, 60, 60)" stroke-width="1px" opacity="0.25"></line><line x1="0" y1="282.75" x2="1475.625" y2="282.75" fill="rgb(0, 0, 0)" stroke="rgb(60, 60, 60)" stroke-width="1px" opacity="0.25"></line><line x1="0" y1="235.625" x2="1475.625" y2="235.625" fill="rgb(0, 0, 0)" stroke="rgb(60, 60, 60)" stroke-width="1px" opacity="0.25"></line><line x1="0" y1="188.5" x2="1475.625" y2="188.5" fill="rgb(0, 0, 0)" stroke="rgb(60, 60, 60)" stroke-width="1px" opacity="0.25"></line><line x1="0" y1="141.375" x2="1475.625" y2="141.375" fill="rgb(0, 0, 0)" stroke="rgb(60, 60, 60)" stroke-width="1px" opacity="0.25"></line><line x1="0" y1="94.25000000000004" x2="1475.625" y2="94.25000000000004" fill="rgb(0, 0, 0)" stroke="rgb(60, 60, 60)" stroke-width="1px" opacity="0.25"></line><line x1="0" y1="47.12500000000004" x2="1475.625" y2="47.12500000000004" fill="rgb(0, 0, 0)" stroke="rgb(60, 60, 60)" stroke-width="1px" opacity="0.25"></line><line x1="0" y1="0" x2="1475.625" y2="0" fill="rgb(0, 0, 0)" stroke="rgb(60, 60, 60)" stroke-width="1px" opacity="0.25"></line></g></g></g><g><g><line x1="0" y1="377" x2="1475.625" y2="377" fill="rgb(0, 0, 0)" stroke="rgb(153, 153, 153)" stroke-width="1.5px"></line></g></g><g><g><line x1="134.14772727272728" y1="0" x2="134.14772727272728" y2="377" fill="rgb(0, 0, 0)" stroke="rgb(153, 153, 153)" stroke-width="1.5px"></line></g></g><g><g><g><g><g><path stroke="rgb(255, 112, 67)" stroke-width="2px" d="M166.8931875,-59.550145814671815L167.17489772727274,19.65845694553657L167.72490340909093,-27.4297725421489L171.27981818181817,-11.514485178761003L175.50547159090908,36.65384300983515L175.8005965909091,41.6198592800353L176.3371875,13.667597541611205L177.62500568181818,5.286556961756387L177.94696022727274,15.257742027134078L179.16770454545454,38.25446852621622L181.0994318181818,-13.93073587375113L181.98480681818182,11.645781159274588L182.4409090909091,-41.7021746825653L183.35311363636364,-27.02053727687946L183.39335795454545,28.834528130248266L185.7677727272727,29.471408684266603L186.6665625,4.0139094815341965L188.11535795454543,-18.908106349882253L189.2690284090909,25.919262658379395L189.4300056818182,59.73355735616707L190.23489204545456,67.95117743780322L190.38245454545452,18.916187500632823L190.8519715909091,52.67596897231098L192.07271590909093,89.40042151363502L192.20686363636364,103.89126331420744L195.37275,142.03471379765523L198.9679090909091,103.05070552401048L202.42892045454545,108.23592368467104L203.046,140.47063184800086L203.73015340909092,163.2665677131565L203.90454545454546,159.3684130496591L204.73626136363634,161.5268339298255L205.17894886363638,156.75197135699304L206.07773863636362,149.19152387554948L207.3118977272727,109.06806633815462L210.16924431818182,64.59128954377933L212.38268181818182,73.20512140612104L212.8387840909091,104.02009561848823L213.01317613636365,132.27433191652412L214.38148295454545,131.13537615487164L214.59611931818185,114.08244290321588L215.3473465909091,112.26398680430363L216.48760227272726,88.9368509162766L217.6546875,98.21822760756625L218.37908522727272,105.38150242719543L219.11689772727271,130.3920046821445L219.5864147727273,137.19217873425544L222.26936931818182,190.9241865564064L224.42914772727272,157.49693538479062L224.6974431818182,120.70917516191037L226.03892045454543,78.02689300322075L226.96453977272725,107.89558294024192L227.9304034090909,167.60182255867795L228.7755340909091,143.55360473611162L231.44507386363637,165.4721340144766L233.89997727272726,131.28109231025536L234.2755909090909,174.96765984553434L235.33535795454543,214.0280829084416L236.69025,191.0414388038218L237.80367613636366,174.20105997070675L237.84392045454544,139.89700032082203L238.19270454545455,167.92534381632208L238.7024659090909,184.72674945583464L241.27810227272727,235.7142599155934L243.10251136363638,206.67197144212906L245.36960795454544,206.74146967639078L248.81720454545453,237.41712243413662L248.8976931818182,240.8516108933433L249.75623863636366,245.54042775889303L250.30624431818183,196.51404269015828L250.77576136363635,202.7973622112038L251.17820454545455,141.86484568289293L251.55381818181817,171.80619422180277L251.87577272727273,159.5328444336821L251.90260227272728,213.4833918896299L252.50626704545454,216.0723902694572L252.6404147727273,240.993421209585L253.23066477272727,175.4807773010322L255.65873863636367,179.56696817734175L256.91972727272724,209.48101064537963L258.2612045454546,217.4817314682901L258.78438068181816,186.9089994870722L259.2673125,156.35239838618634L259.69658522727275,202.67502938692925L262.2185625,229.0855686991522L264.432,197.38928089613373L264.9820056818182,225.8824720789472L264.99542045454547,231.07015625294923L266.1088465909091,235.34132405314966L266.51128977272725,247.60855437632875L266.8734886363637,224.09316536376758L267.18202840909095,222.8657979046696L267.61130113636364,175.4006975934144L267.9332556818182,185.70454399855356L268.0137443181818,241.29236968053235L269.14058522727277,249.63592458333287L269.5027840909091,204.30937139133044L269.91864204545453,169.47704628669874L270.85767613636364,167.66366811730654L272.8833068181818,160.60632294498797L273.5942897727273,203.86682421167444L274.2650284090909,214.40820701837393L274.4394204545455,190.3460133577576L275.01625568181817,196.16995603175113L275.2443068181818,209.2298796822497L275.82114204545456,198.59719512461834L276.9211534090909,212.10593220948704L276.94798295454547,235.744489046094L277.7796988636364,230.52793424854107L278.00775000000004,276.71805235090517L282.0187670454546,241.94373536314166L282.1931590909091,200.7637425434923L282.9712159090909,172.99338316752528L283.2931704545454,146.45547666450747L284.6346477272727,189.4064448255325L286.15051704545454,218.80503942239432L286.99564772727274,249.38739097218604L292.69692613636363,249.96311664045385L293.34083522727275,141.54205922758896L295.48719886363637,175.91383315608692L296.1445227272727,188.35233670762653L299.36406818181814,200.64606413418934L299.87382954545456,213.67438520893387L300.4640795454545,254.7481326544579L300.4909090909091,221.6840519061265L301.5104318181818,205.24650325480567L303.18727840909094,134.43938409151713L304.6226590909091,151.87658892787744L307.2117102272727,202.69543384592083L307.26536931818185,205.35207762170043L307.78854545454544,250.46703792719967L312.61786363636367,255.66183250462367L313.74470454545457,242.3202459473333L314.14714772727274,237.37312980049379L315.5422840909091,205.59951083692033L315.9178977272727,240.05142624576158L316.8971761363636,259.63058838784264L317.1520568181818,286.8908632139239L317.21913068181817,275.02436042665687L319.29842045454546,285.90769882553366L319.92891477272724,266.8253595742795L321.56551704545456,286.4904258497484L321.68625,298.1738132475572L322.571625,305.9215894811604L324.4765227272727,292.013873027161L324.7179886363636,285.39690818422747L325.5094602272727,265.6888082565887L326.703375,237.5690594757809L326.7972784090909,267.1648730930813L330.31194886363636,279.6370390815811L330.60707386363634,291.1223083250688L331.9485511363637,265.5703348405937L333.37051704545456,269.33081627862333L333.54490909090913,287.35938143865275L335.62419886363637,307.19157679460056L336.2412784090909,233.88874943006994L336.3083522727273,188.57448067038638L337.03274999999996,198.62876252096524L337.85105113636365,225.5520917252399L340.34619886363635,238.30681859408006L341.9425568181818,209.82532609673848L343.55232954545454,241.0447986329944L343.9279431818182,213.37245981129115L352.01705113636365,262.8130945830471L352.98291477272727,269.6074739810185L354.04268181818185,238.15721055962777L354.51219886363634,242.54821143506848L359.97201136363634,281.3579632749193L360.4012840909091,263.9420023238678L360.5890909090909,271.60694478309273L360.62933522727275,272.5807222804792L360.9512897727273,283.76836770065825L361.4878806818182,257.7511046307576L363.80863636363637,219.13790267868592L363.88912500000004,229.48160745301095L363.90253977272727,227.95290762542638L365.7269488636363,216.51770965670914L367.4842840909091,172.31711706170663L369.7513806818182,234.62240452631843L370.67699999999996,262.9278759468468L371.5489602272727,276.69092544817164L372.0050625,305.1208956317796L375.6807102272727,294.11872278611025L377.2368238636364,303.8653632228682L377.3441420454546,281.6798515036768L377.3978011363636,199.64663474053538L377.4514602272727,245.10195619637008L381.04661931818185,278.44919601693294L382.06614204545457,272.29012018510423L385.79544886363635,264.21944568496184L385.8759375,287.2925237443521L386.07715909090905,298.6790091649577L386.2783806818182,309.8447912949851L387.74059090909094,282.5142045061904L390.4906193181818,254.50936463720313L390.5442784090909,283.66266228405664L391.8320965909091,292.4750731029989L393.30772159090907,288.3370398395587L394.0857784090909,290.21363775958594L395.7492102272727,253.53827443140727L396.352875,267.08010112892384L397.3053238636364,272.13373834580653L400.3102329545454,259.98299563044594L401.3968295454546,256.5755584365981L402.4297670454545,248.01010476510865L409.0566647727273,276.2624214959809L410.1969204545454,277.93035426274946L410.7335113636364,291.91484631023417L411.109125,278.05231150341996L411.35059090909095,300.5485808624504L411.3774204545455,296.55114673517215L412.6384090909091,264.9765101131324L413.7250056818182,279.69994290807983L415.4286818181818,251.62553846621003L415.5762443181818,223.65572454204252L415.8579545454545,248.24917708140666L416.34088636363634,261.45869101465973L416.5555227272727,285.86736022833725L417.5884602272727,260.5902585679516L419.43969886363635,263.5370110478535L420.0299488636363,197.7176380936226L424.9263409090909,213.7406225552512L424.95317045454544,236.34351617696004L430.11785795454546,232.4307172423727L431.44592045454544,225.96020822084705L433.39106250000003,268.14647738922696L434.37034090909094,298.2471637184266L438.68989772727275,300.6973386514093L439.4142954545455,303.13155976730025L443.6399488636364,282.65290236948397L444.10946590909094,226.961616542807L447.114375,234.07116046361375L448.1338977272727,245.8936317194238L448.14731250000006,251.52065458767026L449.3948863636364,281.93553736580856L450.5888011363636,280.775258876523L461.1730568181818,312.1775793035422L462.3938011363636,301.84438734052145L462.44746022727276,305.91458721785284L462.70234090909094,313.71670029657207L465.54627272727276,280.87127198336793L465.7340795454545,284.1057212654249L466.2706704545455,314.44090581817903L467.20970454545454,288.0225591950624L467.4109261363636,258.13434694069673L467.8401988636363,238.92509765540393L467.9341022727273,256.65859428861637L468.6853295454545,261.7625746105248L469.39631249999996,263.225247369655L470.22802840909094,234.8067305603314L471.0195,241.83345241359999L472.85732386363634,247.28469685323313L475.4732045454545,233.03625301186608L478.2232329545455,244.805010579016L478.9476306818182,266.2593839850939L479.08177840909093,280.58021588396537L479.10860795454545,274.52563227725926L479.67202840909096,292.69680407725514L481.8183920454546,291.1982878302499L481.9793693181818,281.9191200020888L484.9842784090909,254.11798955696696L486.45990340909094,285.4809069168441L486.9964943181818,260.9163065899535L487.9891875,243.93255231971287L488.5794375,284.43097069826564L491.5977613636363,279.77526028732564L492.2282556818182,311.91511139068075L493.87827272727276,323.9635780433897L495.94414772727276,322.3035008962502L496.5343977272728,277.54568606946174L496.7356193181818,267.0756125052768L497.74172727272725,277.47344076037393L500.47834090909095,306.8768808127939L502.4368977272727,306.18010533192745L503.3356875,327.6793153157175L504.7442386363636,330.5774956789815L505.07960795454545,333.0819526849511L506.9710909090909,262.57420020331875L507.5210965909091,200.7714258136149L508.3393977272727,260.069590927395L509.8418522727273,256.61539815439744L510.36502840909094,208.13550916656237L511.1296704545455,227.47329554167024L515.8248409090909,262.7675517452158L518.0114488636364,272.46989573403584L520.4126931818181,282.8358357004189L521.2175795454546,316.93016893856156L521.5931931818182,307.07326662655134L522.8005227272728,285.83489723572404L522.9615,297.61199765246675L526.6505625,284.14342643822175L527.334715909091,288.406695067912L528.9579034090909,264.6494647383867L529.749375,302.12793409870136L530.7554829545454,278.59262736467167L531.4932954545454,278.7320369471767L531.7079318181818,295.8857912444865L532.1774488636364,298.53119040571426L532.2579375,254.66197666849357L533.6933181818182,285.8785433341602L534.3238124999999,286.16552326497674L534.5518636363636,304.4328195648923L534.9006477272727,312.04634158894623L536.242125,273.14194498708963L537.3287215909091,302.1385788694091L537.4896988636364,324.6797231219749L537.664090909091,286.6891293485487L540.615340909091,315.179820257993L541.0580284090909,298.45288612161363L546.0214943181818,309.08978715964724L548.5568863636364,304.75363522576436L548.9190852272727,313.89125203524316L549.4556761363636,335.68422924352757L549.5629943181818,294.7153453014676L550.0861704545454,317.4001634065738L553.2788863636364,321.25640597906295L554.2179204545455,335.7745491934811L555.0496363636364,328.0806633471248L555.5057386363636,310.9792410918353L556.2972102272728,323.15555655290353L558.1484488636364,324.8412359696905L558.8594318181819,311.67910948349714L559.3960227272727,334.46416771775444L562.1058068181818,330.8478277511356L562.3204431818182,328.14128263365967L562.7899602272728,275.45789145870054L563.0985,301.4064704489293L563.6082613636363,313.7501122451772L570.2217443181818,326.2316453201741L571.0534602272728,310.83565141517937L574.2998352272728,329.598878290558L574.4742272727273,345.28929975129165L574.4876420454545,325.3224059462368L575.5205795454546,317.91117860047933L576.379125,324.3109905118878L576.9962045454546,302.6352278706512L580.5779488636364,319.07539701042066L582.3084545454545,325.6701956083029L582.5499204545455,308.4780756944209L586.2389829545455,304.8528581105941L587.6072897727273,287.1016535635754L588.4255909090909,287.13477823293L588.4524204545454,297.9580374652492L588.7207159090909,291.44751712050123L590.5317102272727,295.37804460445693L591.6853806818182,305.1351548741439L596.4744545454545,326.05490025119065L596.9439715909091,303.3871874018673L598.6074034090909,305.3507634090879L602.7391534090909,317.093071912229L602.9806193181818,275.8602323558926L603.0074488636363,293.83644151550527L603.2220852272727,309.99267656869887L605.542840909091,314.08139698441147L606.5757784090908,331.2001206043233L608.7221420454546,348.33459012743424L609.8892272727272,347.01872375480286L610.0636193181818,347.26350810302466L611.0563125,340.0424038420509L611.4319261363637,342.5597747773165L612.1831534090909,342.3277127167722L613.1087727272727,339.43962650574093L615.3892840909091,341.47703943074845L615.9124602272727,314.67598515999975L616.3819772727273,327.2740513794283L617.1868636363636,343.1258672334349L623.800346590909,347.8037641440389L625.2893863636364,344.3073443349932L625.5442670454545,334.22141623581854L626.2820795454545,347.0119512868548L626.3893977272727,308.7458664234057L628.9650340909091,321.70402246597854L628.9918636363636,323.659349856576L629.0321079545455,328.0658858241443L629.1930852272727,313.44550770651125L629.3808920454545,331.4171850856741L630.4406590909091,342.1408078116387L631.3662784090909,340.62844489319383L631.5540852272727,321.5363257143096L632.0504318181818,314.73322925348253L632.9358068181818,324.14783609511954L637.174875,324.43904935927696L639.1736761363636,315.5264320082158L639.535875,332.8060391564185L640.5419829545455,315.6545481573948L641.3334545454545,314.9637017051225L643.0639602272728,290.3870143711474L649.0871931818182,308.01557251184624L649.1006079545455,323.456283532795L649.3823181818182,317.8119082321028L650.4420852272727,313.31213112141495L650.8579431818182,325.943242570554L651.4616079545455,296.6128891651599L654.7079829545454,294.28160420028973L655.1640852272727,298.65525820981634L655.7140909090909,309.43840998563866L655.9555568181818,326.24435149448334L657.6592329545455,337.5642674260123L660.5165795454545,340.19938245521683L663.7227102272727,309.4924081376594L664.7154034090909,321.9903757385255L665.2117499999999,313.4339903898144L666.8751818181818,319.6276181545618L671.1410795454545,305.12771410684365L672.2142613636363,324.23207378948075L673.0728068181818,284.23028491177763L673.9045227272727,308.22930064194566L674.0789147727272,309.9908618071268L674.5618465909091,329.3906813853138L675.1118522727273,330.1926719162258L675.1923409090908,340.32860095245496L676.3191818181818,345.919170199739L677.7411477272727,322.60652486169766L677.9826136363637,304.8113220732476L678.6935965909091,284.4097671121994L679.0155511363636,283.77299337897534L681.3765511363637,314.08888935373034L681.4838693181819,315.14657032385946L682.127778409091,331.46451939207606L683.3753522727272,331.67715969420846L684.7302443181818,310.9198486997925L685.0924431818182,235.50963774289147L685.1326875,276.34989048072964L685.1863465909091,264.5947441192226L688.0571079545455,305.81490926261284L689.1705340909091,325.8557591270837L690.4985965909091,333.14819712826204L691.3437272727273,326.89107438855524L691.4108011363636,324.7090004991481L691.7461704545454,327.2357932909423L692.9266704545454,344.5977918742988L694.5096136363636,310.81406900220475L696.3876818181818,327.36056876217344L697.1389090909091,340.393176000774L697.7291590909091,350.5868145832182L699.151125,355.94759809017245L699.2852727272727,352.85008345381954L699.3255170454545,323.1940426369699L703.7523920454545,336.4018927955742L704.7450852272727,321.4114095341632L709.0378125,299.5583593843263L709.2256193181819,309.55580144660956L709.6414772727272,324.8507084066408L710.3256306818182,274.8987842747413L712.8341931818181,279.1365911483075L714.0817670454545,291.60348374213606L714.1220113636364,305.60594627076887L714.9537272727273,308.1219713200003L718.4147386363636,330.84238755979356L719.1793806818182,342.18011444451344L721.4062329545454,329.3646482446309L722.7879545454546,343.98932314532345L726.8123863636364,343.87934470693676L727.8184943181818,344.9612075315142L728.1941079545454,354.5375783514961L729.0794829545455,339.2343982053986L729.2672897727273,330.86010171730464L730.6087670454546,341.2287748653987L730.7294999999999,351.91080557681164L730.8904772727273,333.99640655742314L731.4002386363636,345.861529897943L732.7685454545455,349.67914473417096L733.9356306818182,340.0133741983932L734.1100227272727,337.5645539880789L734.1905113636363,307.9222100389598L734.6063693181818,293.0667572744249L737.4905454545454,293.5952905164694L738.0003068181819,315.4716918835214L738.4161647727273,324.40910261238645L742.9771874999999,306.8292585349979L743.5406079545455,328.48983491469335L744.9223295454545,344.7166099364469L745.4723352272728,344.4934493647462L747.9674829545455,353.69817026180453L754.9029204545454,359.7786777351271L757.8273409090908,361.2215991651398L757.9883181818182,328.6054102039565L759.4102840909092,345.59261801410344L760.9127386363637,343.5455258075513L762.9517840909091,350.63632835800155L763.1664204545455,346.6708067751211L763.4347159090909,339.9003890974094L764.870096590909,277.25700101988133L765.2591249999999,313.29560826934346L765.4871761363637,275.8288492781935L765.5408352272727,270.55348376619924L765.7554715909091,286.42564578764507L766.1445,313.4180022182337L766.7749943181818,304.71810076846316L767.0298750000001,326.81981758043844L768.7201363636365,265.85800065854596L769.3103863636363,282.86851671194677L770.7994261363635,300.27339833143736L771.9665113636364,269.10917888679137L772.8384715909091,301.2981509669008L773.0262784090909,309.1831244932641L775.0653238636364,309.3154509414452L778.043403409091,333.524299614923L780.5922102272727,345.9640849403198L780.7129431818181,346.4879949508104L781.3702670454545,347.6434995799806L783.2215056818181,340.87749220025813L784.8983522727273,343.66229158881174L786.5751988636364,353.5206237580202L787.3934999999999,347.88126435925494L787.6752102272727,326.7210183593627L789.3654715909091,307.1209687801001L792.7191647727273,278.7591644294141L793.6850284090908,293.9563361684727L794.1679602272727,324.67732924459114L795.06675,340.47209244493536L795.6838295454545,346.8910805200719L796.3143238636363,354.95696975977324L797.9509261363637,326.35504852051196L798.5411761363637,325.5579754684249L800.7411988636363,343.08408331827104L800.8887613636364,354.92843535236733L801.5595000000001,349.57687988693846L802.9143920454545,342.13475359419186L803.0619545454546,349.65495927074073L804.3631875000001,325.49568133615566L804.5509943181819,326.0568399507589L805.0205113636364,319.4582861634366L808.3876193181818,313.2557299746437L809.2059204545454,311.9365937300541L811.6608238636363,332.3796551578056L812.9083977272727,327.985149686206L812.9754715909091,344.38447491041194L813.4584034090909,320.1439279837094L814.2364602272728,332.77790899262914L814.9742727272727,336.3950819116002L815.0950056818182,344.76837514064704L815.8730625,349.40295266902143L816.9462443181818,340.25381578234254L819.562125,350.7197338033984L824.57925,336.4589846351308L826.35,287.70656806341185L828.9927102272728,288.63297342575413L830.7768749999999,318.52868769860606L830.8573636363636,322.60226027173604L831.0451704545455,341.82353153882354L831.3268806818181,330.4032742563363L831.8903011363637,341.8617485245154L834.7878920454546,318.24968480051075L835.2439943181818,336.972688568081L836.437909090909,339.72693032395574L836.5988863636363,286.9974887482627L837.0684034090909,310.5545861370745L838.946471590909,312.6430047391285L839.0537897727273,309.8126318611759L840.314778409091,324.7260446761881L840.6501477272728,339.2511408606073L844.6879943181817,301.94989844434866L846.2306931818182,311.015254734596L848.5380340909092,326.4619367677065L853.4880852272727,299.2013118659313L855.9966477272727,307.1555117395434L858.3039886363636,326.31383061718424L859.0954602272727,335.1528826273917L860.5174261363637,324.0293316300177L864.6894204545454,337.35628701704525L866.4333409090908,349.7357496506812L866.4870000000001,341.78158195312864L866.6613920454546,349.7760160926494L868.8211704545455,325.4547725223609L872.8321875,316.66965492237256L873.019994318182,318.42871129166275L873.5699999999999,313.04504352153054L873.9456136363636,316.87342363053983L874.0663465909091,302.90286507728354L875.4614829545454,278.94814118458424L876.8834488636363,298.0880900485134L878.6541988636363,307.73738205062244L879.7810397727272,295.3630554981643L879.8212840909091,310.94949012518606L880.1029943181818,316.9335297481458L880.3981193181818,330.98078181624356L881.5920340909091,304.6176354708072L883.6310795454546,332.4268826397555L885.133534090909,348.02349751726445L885.5225624999999,352.0129706697801L887.1457499999999,347.7565549522423L887.6286818181818,350.73638859263264L888.1921022727273,320.25268926245695L889.2786988636365,310.57342238439753L891.7738465909091,306.2191794452884L891.8275056818183,324.2743478175442L891.9079943181817,330.2353161875272L895.5836420454546,315.9012767808953L895.9860852272727,282.9021332077574L896.0129147727273,293.657640767836L897.8775681818182,303.13882731362787L898.2397670454545,309.3155774010099L899.6751477272727,305.5921832968519L902.8276193181819,251.6441685288981L904.3166590909091,293.72073159023137L904.8398352272727,302.8238036090375L906.6374147727273,328.6568012813771L909.2667102272728,336.79891881712047L909.4142727272728,346.8827083430753L910.8362386363638,322.26918120068706L911.4533181818182,309.56924350191593L911.7484431818182,334.6614448106181L911.9094204545455,308.51451457595175L914.4850568181818,308.4083627629599L917.1277670454546,324.0599475960923L917.5302102272727,316.4765077731605L917.6375284090909,335.5316141088513L918.2009488636363,345.0894019053702L920.4546306818181,353.7445261358887L920.991221590909,346.8415674093169L921.9973295454546,346.86128310548077L922.4802613636364,311.8724068712402L923.8083238636364,313.50592162526897L926.3839602272727,327.47819157841656L930.1803409090909,302.063988263326L932.1254829545455,320.3165863479925L933.0376875,317.8065659299941L933.0645170454545,323.731812365082L938.6584772727274,311.7514491049809L939.0475056818183,309.15559414138573L941.4353352272726,334.0892900881405L942.7902272727272,306.1755372528574L944.8158579545454,319.84056901152974L951.8854431818181,341.29588483970866L954.8366931818182,332.01784258157915L955.3866988636364,335.07063530725776L957.6269659090909,307.04499532784547L957.7879431818182,329.2133994570332L961.3026136363637,341.0226688740227L962.1745738636364,337.4762039487108L962.4026250000001,305.8273545744744L964.5758181818182,293.1748391102389L964.6026477272727,284.43016275528885L965.0721647727272,313.98750356742033L965.4477784090909,332.0011440305161L965.7294886363636,332.48810658608363L966.5612045454545,346.40135482570963L966.9502329545454,349.9445822138127L970.4783181818182,359.4952231881268L971.0417386363637,348.4079213872401L973.3490795454545,354.1486082962065L973.3759090909092,347.96242163201623L975.1600738636363,354.5283113775504L976.8637500000001,362.0747386010853L978.8491363636364,342.2961246679644L980.2308579545455,343.15109311851387L981.2906250000001,352.5847124278547L981.4381875,264.45238766193404L982.6052727272727,294.04546736252314L986.8979999999999,306.5599461813092L987.6223977272726,318.5618012603712L988.4943579545454,335.79189077804045L991.4187784090908,290.8887655960891L993.9139261363636,320.62824808298785L994.4102727272727,291.809186105366L999.387153409091,317.274677617884L1000.715215909091,321.8734150155105L1001.1310738636364,325.627855148835L1004.6859886363637,340.1210178870994L1005.1420909090909,345.75704471701613L1010.4677556818183,345.51715807279487L1011.09825,344.80318580812536L1011.7019147727274,347.18967248273685L1012.0775284090909,350.2947304384279L1012.1177727272727,357.5148694425146L1013.5933977272728,358.2866307781977L1015.2836590909092,348.38395792539967L1015.7934204545455,358.39023818475636L1016.2092784090909,354.48785749317784L1017.3897784090909,340.54095387975326L1017.6178295454545,342.04548726838794L1018.6239375,352.42417998566907L1018.9324772727274,345.58534300598313L1019.3483352272727,352.8602402530108L1021.0385965909092,353.1373990597274L1022.3398295454544,282.3587495727507L1022.608125,309.23135756735013L1022.7959318181818,335.69829368532413L1023.4398409090909,346.51699344107936L1026.350846590909,342.92339229756254L1028.0142784090908,331.6040721218208L1028.269159090909,347.63740405137355L1028.4301363636364,342.0116135713161L1028.6447727272728,353.6038001662575L1028.8728238636363,324.3563687629153L1029.436244318182,329.1513200962037L1029.4764886363637,337.6678149555468L1029.98625,340.222345509639L1034.1448295454545,344.22070088707545L1036.1168011363636,353.57219442690547L1036.7070511363636,346.1842762930103L1038.1156022727273,349.8864387584721L1039.7924488636363,352.508408042073L1039.9534261363635,349.19435999082305L1044.1254204545455,328.64209703675976L1044.4742045454545,328.7769319419388L1044.9839659090908,346.0848890884563L1046.2717840909093,311.6017025824693L1047.2778920454546,336.23686205515975L1048.87425,287.9487223128659L1050.5242670454545,298.41939383001227L1051.288909090909,327.5338693466103L1052.2279431818183,322.932682666559L1052.469409090909,341.20824034285033L1054.2267443181818,340.3266827361076L1054.6560170454545,328.0058328969055L1054.7096761363637,314.7327986858948L1055.259681818182,307.90772169397263L1057.432875,334.3438828232906L1057.5804375,349.18221499561645L1060.6524204545456,328.27393780076136L1060.719494318182,345.3034678839252L1062.9061022727274,334.3013891454104L1064.274409090909,346.256349946592L1065.4951534090908,353.2006539536097L1065.937840909091,360.0916251756111L1066.8634602272728,334.580431194148L1068.3525,338.5407211652646L1068.8220170454547,345.21405585162336L1070.2976420454547,337.89522249208386L1070.7939886363636,340.4121150029093L1075.7976988636365,345.1973263231599L1077.7294261363636,318.4408531178644L1078.0111363636363,250.862839528299L1081.0697045454547,295.8629014087478L1081.136778409091,268.419336559937L1081.727028409091,303.30065718855894L1081.9014204545454,309.8579316038873L1083.1221647727273,254.447056561648L1084.9197443181818,261.02552286680884L1085.9392670454545,278.9744320356628L1086.0331704545454,308.2745821710695L1086.7709829545454,322.9310596688848L1087.6831875,336.9790295141495L1088.729539772727,345.346271912906L1089.3600340909093,343.4448299002072L1089.5880852272728,328.91668913462286L1090.0307727272727,342.9233109880896L1091.3722500000001,343.44160941492987L1095.906443181818,349.52399524451175L1096.8991363636364,359.58259246271626L1097.4893863636364,353.51616509718764L1097.771096590909,354.19813125036995L1098.8711079545456,348.4087524552813L1098.9784261363636,331.19533095745265L1101.3796704545455,347.1810549495028L1103.8882329545454,316.16311751588626L1107.3894886363637,326.5689396979477L1107.8590056818182,332.85631877464454L1108.328522727273,329.540453234508L1108.677306818182,342.0957731268224L1115.089568181818,337.60016453185176L1116.16275,341.09677659671604L1116.6725113636362,348.8537593384153L1119.5030284090908,349.304171934698L1120.0262045454544,350.46852810269536L1121.0054829545456,349.2218449105974L1122.6286704545455,349.65736173109156L1124.667715909091,318.74524805257283L1125.2982102272726,340.73910774698595L1125.700653409091,331.24437934852085L1125.7945568181817,325.2537346240666L1126.0762670454544,337.5428489744983L1127.2970113636363,317.8469230130507L1127.323840909091,325.3463604268547L1128.853125,342.83653797870073L1129.4165454545455,327.07260295102117L1130.9458295454544,329.46425725802254L1132.3677954545453,324.1570305692224L1133.3068295454545,297.1273695479076L1134.8092840909092,296.3652784735108L1136.472715909091,327.24921958264827L1136.9824772727272,332.399988488806L1138.042244318182,334.25314168420596L1138.3373693181818,328.0234845700095L1140.322755681818,332.2215229584115L1141.5569147727272,328.97968595032916L1141.7313068181818,346.4372131796108L1142.2142386363637,344.0768787672476L1142.724,329.417795275769L1143.0057102272729,281.1283256799706L1145.2057329545455,316.43805172145983L1146.1850113636362,338.0522043893523L1146.9228238636365,346.6714462173603L1147.835028409091,336.88369085387126L1148.4655227272729,351.989207622756L1149.4448011363636,359.57116306936706L1152.1411704545453,352.6945276282189L1153.1338636363635,358.04334178045883L1153.7375284090908,362.5219437254995L1156.594875,321.8242486386615L1156.6082897727272,262.1112980168532L1157.775375,268.1770908025784L1160.2034488636364,306.14642997013823L1160.7936988636363,331.46202574440713L1161.5449261363635,341.21184499647546L1164.3083693181818,346.0703680434753L1166.2400965909092,329.1185088422256L1167.2462045454545,321.19669620045175L1167.3401079545456,308.7694558015355L1167.5145,333.0459047182434L1169.0303693181818,341.4656122214516L1173.8731022727272,330.9705398521972L1174.5304261363638,338.09657664028714L1174.5706704545455,352.43320208195473L1175.2548238636364,340.1264515520848L1177.8975340909092,329.6892773241828L1179.8292613636363,328.9456248987335L1181.0231761363636,343.00343381292333L1181.3048863636363,335.15628736422485L1181.6939147727273,343.4779314556332L1182.4317272727271,348.70718521452613L1182.9951477272728,354.34890376933913L1183.5719829545455,351.5736648092181L1184.1890625,345.1125660061544L1184.9134602272727,354.51171934275067L1185.1817556818182,351.7279451369091L1185.222,341.50817822017336L1186.1744488636364,333.75489991067684L1186.3354261363636,287.07149643694663L1187.4354375,296.4866745069343L1187.4756818181818,327.2826026892401L1188.414715909091,343.34033143073987L1189.058625,354.8839505804929L1190.4940056818182,358.9911042153599L1190.6281534090908,353.91751655860315L1193.0830568181818,360.4784004872766L1194.719659090909,341.9882069847421L1195.900159090909,285.74411333331085L1195.9135738636364,318.50007627612274L1196.3026022727272,332.9978224710728L1197.0001704545455,343.4400327131811L1201.3465568181819,348.93122054938453L1201.6550965909091,356.153458747217L1205.5185511363636,357.00020538520744L1206.3234375,330.3244261801358L1210.6698238636363,340.01378197804786L1211.2064147727274,342.81704781106527L1213.6747329545456,328.49735597164283L1213.9430284090909,339.0850987129858L1214.6405965909091,316.9780544873149L1222.649215909091,314.3095555148167L1224.9699715909092,338.3314733525413L1225.1041193181818,341.6975802552878L1225.6809545454546,353.37706088509356L1225.6943693181818,328.2600909843218L1226.6065738636364,340.8000712666167L1227.7870738636364,340.6602748594137L1228.9944034090909,304.20475127765246L1230.4163693181818,316.72331764083333L1232.9517613636365,324.2012341575696L1235.6749602272728,344.77952934942664L1237.5261988636364,346.4518233967097L1240.6250113636363,357.2733973697437L1241.6311193181818,356.4292644413926L1243.65675,357.35989118755566L1244.193340909091,363.2754806607035L1246.903125,346.14185646424096L1249.5860795454546,339.7044435039127L1249.8409602272727,336.1627797898629L1249.9348636363636,274.3371047924148L1251.9202500000001,308.472477169346L1256.2800511363637,315.3937315651841L1258.2386079545454,337.9334659721519L1258.2922670454545,337.1834428434709L1259.5532556818182,341.6280978769147L1259.7008181818182,299.08965446949503L1260.2776534090908,329.3015984184697L1260.5861931818183,312.4983359820935L1260.8410738636362,335.5711257362987L1261.5118125,317.44116769460595L1264.7581874999998,327.2345213173494L1266.2740568181819,345.0276130169952L1267.065528409091,342.8223102744117L1267.1594318181817,335.19333735887375L1268.1387102272727,343.9060823304753L1269.3728693181818,337.01495649938585L1269.4801874999998,351.56388265998913L1269.7082386363636,359.87712251312587L1272.0155795454546,354.4310679147664L1272.1497272727272,360.39058173190944L1272.4985113636362,366.19643097319164L1274.2424318181818,363.92610199047897L1274.8058522727274,353.3170857603477L1276.1070852272726,356.0705354362802L1276.616846590909,305.8059698551939L1277.0461193181818,320.66268149450696L1278.0253977272728,334.66048659308416L1280.0376136363636,349.2164658553074L1280.4132272727272,342.26190905849154L1281.727875,344.05944967094075L1282.224221590909,342.80318042604927L1282.519346590909,347.12987901773334L1283.5791136363637,343.9292846098917L1284.920590909091,351.9370821934418L1285.0547386363637,354.25630572417236L1285.9401136363638,350.8610202616683L1287.0535397727274,339.33052381031104L1290.7962613636362,348.97260834851795L1293.130431818182,337.6805506904658L1293.2109204545454,339.4774291811726L1293.4658011363638,350.2306991812716L1295.7597272727273,340.0124755231816L1296.4707102272728,349.27555006165966L1296.6451022727272,352.9281011002938L1296.8194943181818,338.96074692622904L1297.423159090909,351.23577274715797L1299.4487897727272,348.1443331738466L1299.8109886363636,343.97605411858285L1300.414653409091,353.321161165988L1302.2524772727272,320.76950143286916L1303.5134659090909,333.52735366901356L1305.5390965909091,341.1360641649699L1305.7805625,351.99629988931633L1308.9464488636363,352.9698590541662L1310.462318181818,350.53574977247604L1311.8440397727272,359.88778982143253L1311.8708693181818,358.97092228952437L1311.884284090909,362.356268641045L1313.4269829545456,340.0716251770797L1313.5611306818182,338.5319956766154L1315.9489602272727,347.8035855193636L1317.6526363636365,338.1930149614633L1318.8465511363636,338.72929830147746L1321.7843863636363,333.2547005186613L1322.119755681818,325.9888884407362L1325.8088181818182,344.2573190653261L1332.9186477272729,351.04492125318563L1334.0454886363636,330.10304242614575L1336.6881988636362,325.8947017311673L1338.1638238636363,332.7206016000879L1342.0675227272727,342.89029660995436L1343.3687556818181,276.1209919224717L1343.7846136363637,311.88281526706595L1344.0126647727272,325.8677811945497L1344.8712102272727,344.24042252712064L1347.6212386363636,314.60645110763676L1347.6614829545454,328.0023205577288L1349.2175965909091,343.6246698511141L1349.3115,354.11397948451327L1350.250534090909,348.23545905254775L1352.2895795454544,343.60029998229436L1352.5042159090908,353.6539264332145L1353.550568181818,352.21171905388775L1354.2213068181818,359.96537404028527L1354.7981420454546,352.32348603989453L1354.9054602272727,358.6027691246094L1355.9652272727274,332.77354419416315L1360.5262500000001,335.08682072199065L1361.6799204545455,349.4383130766775L1364.7787329545454,337.3602968736187L1364.9262954545454,338.3973695611176L1366.2946022727272,353.43469037191375L1368.2129147727271,342.4556584042388L1370.8153806818182,350.556193820809L1371.700755681818,341.41276160980743L1371.7141704545454,325.68674745771574L1371.7812443181817,318.08974869914823L1371.8751477272729,312.6923886291264L1373.4849204545453,335.02961805903635L1378.3813125000001,345.97348093654944L1378.7166818181818,357.888059565042L1379.3471761363637,362.87054346344746L1382.271596590909,343.8584854414575L1383.505755681818,338.6551403484054L1386.4838352272727,347.9089934490655L1388.7911761363637,355.47546408083497L1391.3131534090908,363.57472000675403L1391.769255681818,365.0484484372705" style="fill: none;" fill="none"></path></g></g></g></g><g opacity="0.2"><g><g><g><path stroke="rgb(255, 112, 67)" stroke-width="2px" d="M166.82611363636363,-85.54318058490753L166.8931875,39.379970997571945L167.17489772727274,138.47079810500145L167.72490340909093,-98.06191596388817L170.47493181818183,-0.9087027907371521L170.59566477272728,0.996833860874176L171.27981818181817,24.87957862019539L175.50547159090908,108.90632954239845L175.8005965909091,49.0688833296299L176.3371875,-28.26079386472702L177.62500568181818,-7.285003691911697L177.94696022727274,30.2145194709301L179.16770454545454,72.74955806136131L181.0994318181818,-92.20854218304157L181.98480681818182,50.01055662333965L182.4409090909091,-121.72410833835602L183.35311363636364,-19.2504480779171L183.39335795454545,112.61712622642517L185.7677727272727,30.426729515194893L186.6665625,-34.1723393201828L188.11535795454543,-53.29113009572029L189.2690284090909,93.16031616926193L189.4300056818182,110.45499940216541L190.23489204545456,80.27760756015778L190.38245454545452,-54.63629740476608L190.8519715909091,103.31564117968082L192.07271590909093,144.4871003255248L192.20686363636364,125.62752601504326L195.37275,199.2498895227909L198.9679090909091,44.574693113565445L202.42892045454545,116.01375092566013L203.046,188.82269409298897L203.73015340909092,197.46047151088715L203.90454545454546,153.52118105441332L204.73626136363634,164.76446525007486L205.17894886363638,149.58967749774456L206.07773863636362,137.8508526533842L207.3118977272727,48.88288003206253L210.16924431818182,-2.1238756477832794L212.38268181818182,86.1258691996336L212.8387840909091,150.2425569370389L213.01317613636365,174.65568636357784L214.38148295454545,129.426942512393L214.59611931818185,88.50304302573204L215.3473465909091,109.53630265593529L216.48760227272726,53.946147084236145L217.6546875,112.14029264450073L218.37908522727272,116.1264146566391L219.11689772727271,167.90775806456804L219.5864147727273,147.3924398124218L222.26936931818182,271.5221982896328L224.42914772727272,107.35605862736702L224.6974431818182,65.52753482758999L226.03892045454543,14.00346976518631L226.96453977272725,152.6986178457737L227.9304034090909,257.16118198633194L228.7755340909091,107.48127800226212L231.44507386363637,198.349927932024L233.89997727272726,79.99452975392342L234.2755909090909,240.49751114845276L235.33535795454543,272.6187175028026L236.69025,156.56147264689207L237.80367613636366,148.94049172103405L237.84392045454544,88.44091084599495L238.19270454545455,209.96785905957222L238.7024659090909,209.92885791510344L241.27810227272727,312.1955256052315L243.10251136363638,163.10853873193264L245.36960795454544,206.8457170277834L248.81720454545453,283.43060157075524L248.8976931818182,246.00334358215332L249.75623863636366,252.5736530572176L250.30624431818183,122.97446508705616L250.77576136363635,212.2223414927721L251.17820454545455,50.466070890426636L251.55381818181817,216.71821703016758L251.87577272727273,141.12281975150108L251.90260227272728,294.40921307355165L252.50626704545454,219.9558878391981L252.6404147727273,278.3749676197767L253.23066477272727,77.21181143820286L255.65873863636367,185.69625449180603L256.91972727272724,254.35207434743643L258.2612045454546,229.4828127026558L258.78438068181816,141.04990151524544L259.2673125,110.51749673485756L259.69658522727275,272.15897588804364L262.2185625,268.70137766748667L264.432,149.84484919160604L264.9820056818182,268.6222588531673L264.99542045454547,238.85168251395226L266.1088465909091,241.7480757534504L266.51128977272725,266.00939986109734L266.8734886363637,188.82008184492588L267.18202840909095,221.0247467160225L267.61130113636364,104.2030471265316L267.9332556818182,201.1603136062622L268.0137443181818,324.6741082035005L269.14058522727277,262.1512569375336L269.5027840909091,136.3195416033268L269.91864204545453,117.2285586297512L270.85767613636364,164.9436008632183L272.8833068181818,150.0203051865101L273.5942897727273,268.7575761117041L274.2650284090909,230.22028122842312L274.4394204545455,154.2527228668332L275.01625568181817,204.9058700427413L275.2443068181818,228.8197651579976L275.82114204545456,182.6481682881713L276.9211534090909,232.36903783679008L276.94798295454547,271.2023243010044L277.7796988636364,222.70310205221176L278.00775000000004,346.00322950445116L282.0187670454546,189.78225988149643L282.1931590909091,138.99375331401825L282.9712159090909,131.33784410357475L283.2931704545454,106.64861690998077L284.6346477272727,253.83289706707L286.15051704545454,262.90293131768703L286.99564772727274,295.26091829687357L292.69692613636363,250.82670514285564L293.34083522727275,-21.089526891708374L295.48719886363637,227.47149404883385L296.1445227272727,207.01009203493595L299.36406818181814,219.08665527403355L299.87382954545456,233.21686682105064L300.4640795454545,316.3587538227439L300.4909090909091,172.08793078362942L301.5104318181818,180.5901802778244L303.18727840909094,28.22870534658432L304.6226590909091,178.03239618241787L307.2117102272727,278.923701222986L307.26536931818185,209.33704328536987L307.78854545454544,318.13947838544846L312.61786363636367,263.4540243707597L313.74470454545457,222.30786611139774L314.14714772727274,229.95245558023453L315.5422840909091,157.93908239156008L315.9178977272727,291.72929935902357L316.8971761363636,288.99933160096407L317.1520568181818,327.78127545304596L317.21913068181817,257.22460624575615L319.29842045454546,302.23270642384887L319.92891477272724,238.20185069739819L321.56551704545456,315.98802526295185L321.68625,315.69889434427023L322.571625,317.5432538315654L324.4765227272727,271.15229834616184L324.7179886363636,275.4714609198272L325.5094602272727,236.12665836513042L326.703375,195.38943630456924L326.7972784090909,311.558593519032L330.31194886363636,298.3452880643308L330.60707386363634,308.3502121903002L331.9485511363637,227.2423746138811L333.37051704545456,274.97153843566775L333.54490909090913,314.40222917869687L335.62419886363637,336.9398698285222L336.2412784090909,123.93450838327408L336.3083522727273,120.6030775308609L337.03274999999996,213.71018529683352L337.85105113636365,265.937085531652L340.34619886363635,257.4389088973403L341.9425568181818,167.10308735072613L343.55232954545454,287.87400743737817L343.9279431818182,171.8639515787363L352.01705113636365,336.97404674068093L352.98291477272727,279.7990430779755L354.04268181818185,190.98181542754173L354.51219886363634,249.1347127482295L359.97201136363634,339.5725910346955L360.4012840909091,237.8180608972907L360.5890909090909,283.10435847193L360.62933522727275,274.0413885265589L360.9512897727273,300.5498358309269L361.4878806818182,218.72521002590656L363.80863636363637,161.2180997505784L363.88912500000004,244.99716461449862L363.90253977272727,225.65985788404942L365.7269488636363,199.3649127036333L367.4842840909091,106.0162281692028L369.7513806818182,328.0803357232362L370.67699999999996,305.38608307763934L371.5489602272727,297.33549970015883L372.0050625,347.76585090719163L375.6807102272727,277.61546351760626L377.2368238636364,318.48532387800515L377.3441420454546,248.40158392488956L377.3978011363636,76.59680959582329L377.4514602272727,313.2849383801222L381.04661931818185,328.4700557477772L382.06614204545457,263.05150643736124L385.79544886363635,252.11343393474817L385.8759375,321.90214083343744L386.07715909090905,315.758737295866L386.2783806818182,326.59346449002624L387.74059090909094,241.51832432299852L390.4906193181818,212.50210483372211L390.5442784090909,327.39260875433683L391.8320965909091,305.6936893314123L393.30772159090907,282.1299899443984L394.0857784090909,293.02853463962674L395.7492102272727,198.52522943913937L396.352875,287.39284117519855L397.3053238636364,279.71419417113066L400.3102329545454,241.756881557405L401.3968295454546,251.46440264582634L402.4297670454545,235.1619242578745L409.0566647727273,318.6408965922892L410.1969204545454,280.43225341290236L410.7335113636364,312.89158438146114L411.109125,257.2585092931986L411.35059090909095,334.2929849009961L411.3774204545455,290.5549955442548L412.6384090909091,217.61455518007278L413.7250056818182,301.78509210050106L415.4286818181818,209.51393180340528L415.5762443181818,181.70100365579128L415.8579545454545,285.13935589045286L416.34088636363634,281.27296191453934L416.5555227272727,322.4803640488535L417.5884602272727,222.67460607737303L419.43969886363635,267.9571397677064L420.0299488636363,98.98857866227627L424.9263409090909,237.77509924769402L424.95317045454544,270.2478566095233L430.11785795454546,226.56151884049177L431.44592045454544,216.25444468855858L433.39106250000003,331.4258811417967L434.37034090909094,343.39819321222603L438.68989772727275,304.37260105088353L439.4142954545455,306.7828914411366L443.6399488636364,251.93491627275944L444.10946590909094,143.4246878027916L447.114375,244.73547634482384L448.1338977272727,263.6273386031389L448.14731250000006,259.9611888900399L449.3948863636364,327.55786153301597L450.5888011363636,279.0348411425948L461.1730568181818,359.2810599440709L462.3938011363636,286.3445993959904L462.44746022727276,312.01988703384995L462.70234090909094,325.4198699146509L465.54627272727276,231.60312951356173L465.7340795454545,288.9573951885104L466.2706704545455,359.9436826473102L467.20970454545454,248.39503926038742L467.4109261363636,213.3020285591483L467.8401988636363,210.11122372746468L467.9341022727273,283.25883923843503L468.6853295454545,269.41854509338737L469.39631249999996,265.4192565083504L470.22802840909094,192.1789553463459L471.0195,252.3735351935029L472.85732386363634,255.46156351268291L475.4732045454545,211.66358724981546L478.2232329545455,262.4581469297409L478.9476306818182,298.44094409421086L479.08177840909093,302.0614637322724L479.10860795454545,265.44375686720014L479.67202840909096,319.953561777249L481.8183920454546,288.95051345974207L481.9793693181818,268.00036825984716L484.9842784090909,212.41629388928413L486.45990340909094,332.5252829566598L486.9964943181818,224.06940609961748L487.9891875,218.45692091435194L488.5794375,345.1785982660949L491.5977613636363,272.7916946709156L492.2282556818182,360.1248880457133L493.87827272727276,342.0362780224532L495.94414772727276,319.81338517554104L496.5343977272728,210.40896382927895L496.7356193181818,251.37050215899944L497.74172727272725,293.0701831430197L500.47834090909095,350.9820408914238L502.4368977272727,305.1349421106279L503.3356875,359.92813029140234L504.7442386363636,334.92476622387767L505.07960795454545,336.83863819390535L506.9710909090909,156.81257148087025L507.5210965909091,108.06726422905922L508.3393977272727,349.0168385980651L509.8418522727273,251.43410899490118L510.36502840909094,135.41567568480968L511.1296704545455,256.47997510433197L515.8248409090909,315.70893605053425L518.0114488636364,287.02341171726584L520.4126931818181,298.3847456499934L521.2175795454546,368.0716687957756L521.5931931818182,292.28791315853596L522.8005227272728,253.9773431494832L522.9615,315.27764827758074L526.6505625,263.9405696168542L527.334715909091,294.80159801244736L528.9579034090909,229.01361924409866L529.749375,358.3456381391734L530.7554829545454,243.28966726362705L531.4932954545454,278.9411513209343L531.7079318181818,321.61642269045115L532.1774488636364,302.4992891475558L532.2579375,188.8581560626626L533.6933181818182,332.7033933326602L534.3238124999999,286.5959931612015L534.5518636363636,331.8337640147656L534.9006477272727,323.4666246250272L536.242125,214.7853500843048L537.3287215909091,345.63352969288826L537.4896988636364,358.4914395008236L537.664090909091,229.70323868840933L540.615340909091,357.9158566221595L541.0580284090909,273.36248491704464L546.0214943181818,325.0451387166977L548.5568863636364,298.24940732493997L548.9190852272727,327.5976772494614L549.4556761363636,368.37369505595416L549.5629943181818,233.26201938837767L550.0861704545454,351.42739056423306L553.2788863636364,327.0407698377967L554.2179204545455,357.55176401510835L555.0496363636364,316.5398345775902L555.5057386363636,285.32710770890117L556.2972102272728,341.4200297445059L558.1484488636364,327.3697550948709L558.8594318181819,291.93591975420713L559.3960227272727,368.64175506914034L562.1058068181818,325.4233178012073L562.3204431818182,324.08146495744586L562.7899602272728,196.43280469626188L563.0985,340.3293389342725L563.6082613636363,332.26557493954897L570.2217443181818,344.9539449326694L571.0534602272728,287.7416605576873L574.2998352272728,357.7437186036259L574.4742272727273,368.82493194239214L574.4876420454545,295.3720652386546L575.5205795454546,306.79433758184314L576.379125,333.9107083790004L576.9962045454546,270.1215839087963L580.5779488636364,343.7356507200748L582.3084545454545,335.56239350512624L582.5499204545455,282.6898958235979L586.2389829545455,299.415031734854L587.6072897727273,260.47484674304724L588.4255909090909,287.18446523696184L588.4524204545454,314.1929263137281L588.7207159090909,281.68173660337925L590.5317102272727,301.27383583039045L591.6853806818182,319.77082027867436L596.4744545454545,357.43451831676066L596.9439715909091,269.3856181278825L598.6074034090909,308.2961274199188L602.7391534090909,334.70653466694057L602.9806193181818,214.01097302138805L603.0074488636363,320.8007552549243L603.2220852272727,334.22702914848924L605.542840909091,320.21447760798037L606.5757784090908,356.87820603419095L608.7221420454546,374.0362944121007L609.8892272727272,345.04492419585586L610.0636193181818,347.6306846253574L611.0563125,329.21074745059013L611.4319261363637,346.3358311802149L612.1831534090909,341.9796196259558L613.1087727272727,335.10749718919396L615.3892840909091,344.53315881825984L615.9124602272727,274.4744037538767L616.3819772727273,346.1711507085711L617.1868636363636,366.9035910144448L623.800346590909,354.8206095099449L625.2893863636364,339.0627146214247L625.5442670454545,319.0925240870565L626.2820795454545,366.19775386340916L626.3893977272727,251.346739128232L628.9650340909091,341.14125652983785L628.9918636363636,326.5923409424722L629.0321079545455,334.6756897754967L629.1930852272727,291.5149405300617L629.3808920454545,358.3747011544183L630.4406590909091,358.2262419005856L631.3662784090909,338.35990051552653L631.5540852272727,292.89814694598317L632.0504318181818,304.52858456224203L632.9358068181818,338.26974635757506L637.174875,324.87586925551295L639.1736761363636,302.1575059816241L639.535875,358.72544987872243L640.5419829545455,289.92731165885925L641.3334545454545,313.9274320267141L643.0639602272728,253.5219833701849L649.0871931818182,334.45840972289443L649.1006079545455,346.61735006421804L649.3823181818182,309.3453452810645L650.4420852272727,306.56246545538306L650.8579431818182,344.8899097442627L651.4616079545455,252.61735905706882L654.7079829545454,290.7846767529845L655.1640852272727,305.2157392241061L655.7140909090909,325.6131376493722L655.9555568181818,351.4532637577504L657.6592329545455,354.54414132330567L660.5165795454545,344.1520549990237L663.7227102272727,263.4319466613233L664.7154034090909,340.73732713982463L665.2117499999999,300.59941236674786L666.8751818181818,328.91805980168283L671.1410795454545,283.3778580352664L672.2142613636363,352.8886133134365L673.0728068181818,224.22760159522295L673.9045227272727,344.22782423719764L674.0789147727272,312.6332035548985L674.5618465909091,358.49041075259447L675.1118522727273,331.3956577125937L675.1923409090908,355.5324945067987L676.3191818181818,354.30502407066524L677.7411477272727,287.6375568546355L677.9826136363637,278.11851789057255L678.6935965909091,253.80743467062712L679.0155511363636,282.8178327791393L681.3765511363637,359.5627333158627L681.4838693181819,316.7330917790532L682.127778409091,355.94144299440086L683.3753522727272,331.99612014740705L684.7302443181818,279.7838822081685L685.0924431818182,122.39432130753994L685.1326875,337.610269587487L685.1863465909091,246.962024576962L688.0571079545455,367.6451569776982L689.1705340909091,355.91703392378986L690.4985965909091,344.0868541300297L691.3437272727273,317.50539027899504L691.4108011363636,321.4358896650374L691.7461704545454,331.0259824786335L692.9266704545454,370.64078974933363L694.5096136363636,260.13848469406366L696.3876818181818,352.18031840212643L697.1389090909091,359.9420868586749L697.7291590909091,365.8772724568844L699.151125,363.9887733506039L699.2852727272727,348.20381149929017L699.3255170454545,278.7099814116955L703.7523920454545,356.21366803348064L704.7450852272727,298.9256846420467L709.0378125,266.77878415957093L709.2256193181819,324.55196454003453L709.6414772727272,347.7930688466877L710.3256306818182,199.9708980768919L712.8341931818181,285.4933014586568L714.0817670454545,310.303822632879L714.1220113636364,326.60964006371796L714.9537272727273,311.89600889384747L718.4147386363636,364.92301191948354L719.1793806818182,359.1867047715932L721.4062329545454,310.14144894480705L722.7879545454546,365.9263354963623L726.8123863636364,343.7143770493567L727.8184943181818,346.5840017683804L728.1941079545454,368.902134581469L729.0794829545455,316.2796279862523L729.2672897727273,318.2986569851637L730.6087670454546,356.78178458753973L730.7294999999999,367.9338516439311L730.8904772727273,307.12480802834034L731.4002386363636,363.6592149087228L732.7685454545455,355.4055669885129L733.9356306818182,325.5147183947265L734.1100227272727,333.89132367260754L734.1905113636363,263.4586941152811L734.6063693181818,270.7835781276226L737.4905454545454,294.38809037953615L738.0003068181819,348.2862939340994L738.4161647727273,337.81521870568395L742.9771874999999,280.45949241891503L743.5406079545455,360.98069948423654L744.9223295454545,369.05677246907726L745.4723352272728,344.1587085071951L747.9674829545455,367.505251607392L754.9029204545454,368.8994389451109L757.8273409090908,363.38598131015897L757.9883181818182,279.6811267621815L759.4102840909092,371.07342972932383L760.9127386363637,340.4748874977231L762.9517840909091,361.27253218367696L763.1664204545455,340.72252440080047L763.4347159090909,329.7447625808418L764.870096590909,183.29191890358925L765.2591249999999,367.3535191435367L765.4871761363637,219.62871079146862L765.5408352272727,262.6404354982078L765.7554715909091,310.2338888198137L766.1445,353.9065368641168L766.7749943181818,291.6682485938072L767.0298750000001,359.9723927984014L768.7201363636365,174.41527527570724L769.3103863636363,308.384290792048L770.7994261363635,326.3807207606733L771.9665113636364,222.3628497198224L772.8384715909091,349.58160908706486L773.0262784090909,321.010584782809L775.0653238636364,309.51394061371684L778.043403409091,369.8375726251397L780.5922102272727,364.6237629284151L780.7129431818181,347.2738599665463L781.3702670454545,349.3767565237358L783.2215056818181,330.7284811306745L784.8983522727273,347.8394906716421L786.5751988636364,368.3081220118329L787.3934999999999,339.4222252611071L787.6752102272727,294.98064935952425L789.3654715909091,277.72089441120625L792.7191647727273,236.21645790338516L793.6850284090908,316.7520937770605L794.1679602272727,370.7588188587688L795.06675,364.16423724545166L795.6838295454545,356.5195626327768L796.3143238636363,367.05580361932516L797.9509261363637,283.45216666162014L798.5411761363637,324.3623658902943L800.7411988636363,369.37324509304017L800.8887613636364,372.6949634035118L801.5595000000001,341.5495466887951L802.9143920454545,330.971564155072L803.0619545454546,360.93526778556406L804.3631875000001,289.256764434278L804.5509943181819,326.89857787266374L805.0205113636364,309.5604554824531L808.3876193181818,303.9518956914544L809.2059204545454,309.95788936316967L811.6608238636363,363.04424729943275L812.9083977272727,321.39339147880673L812.9754715909091,368.98346274672076L813.4584034090909,283.7831075936556L814.2364602272728,351.72888050600886L814.9742727272727,341.8208412900567L815.0950056818182,357.3283149842173L815.8730625,356.3548189615831L816.9462443181818,326.53011045232415L819.562125,366.41861083498225L824.57925,315.0678608827293L826.35,214.57794320583344L828.9927102272728,290.0225814692676L830.7768749999999,363.372259107884L830.8573636363636,328.712619131431L831.0451704545455,370.6554384394549L831.3268806818181,313.27288833260536L831.8903011363637,359.04945992678404L834.7878920454546,282.83158921450377L835.2439943181818,365.0571942194365L836.437909090909,343.85829295776784L836.5988863636363,207.9033263847232L837.0684034090909,345.8902322202921L838.946471590909,315.77563264220953L839.0537897727273,305.5670725442469L840.314778409091,347.09616389870644L840.6501477272728,361.0387851372361L844.6879943181817,245.9980348199606L846.2306931818182,324.6132891699672L848.5380340909092,349.63195981737226L853.4880852272727,258.31037451326847L855.9966477272727,319.08681154996157L858.3039886363636,355.0513089336455L859.0954602272727,348.4114606427029L860.5174261363637,307.34400513395667L864.6894204545454,357.3467200975865L866.4333409090908,368.30494360113516L866.4870000000001,329.8503304067999L866.6613920454546,361.7676673019305L868.8211704545455,288.97290716692805L872.8321875,303.4919785223901L873.019994318182,321.067295845598L873.5699999999999,304.9695418663323L873.9456136363636,322.6159937940538L874.0663465909091,281.9470272473991L875.4614829545454,243.01605534553528L876.8834488636363,326.7980133444071L878.6541988636363,322.21132005378604L879.7810397727272,276.801565669477L879.8212840909091,334.32914206571877L880.1029943181818,325.9095891825855L880.3981193181818,352.0516599183902L881.5920340909091,265.0729159526527L883.6310795454546,374.1407533931779L885.133534090909,371.4184198335279L885.5225624999999,357.9971803985536L887.1457499999999,341.3719313759357L887.6286818181818,355.20613905321807L888.1921022727273,274.5271402671933L889.2786988636365,296.0545220673084L891.7738465909091,299.68781503662467L891.8275056818183,351.357100375928L891.9079943181817,339.17676874250174L895.5836420454546,294.4002176709473L895.9860852272727,233.4034178480506L896.0129147727273,309.790902107954L897.8775681818182,317.36060713231564L898.2397670454545,318.5807025320828L899.6751477272727,300.007092140615L902.8276193181819,170.72214637696743L904.3166590909091,356.8355761822313L904.8398352272727,316.4784116372466L906.6374147727273,367.4062977898866L909.2667102272728,349.01209512073547L909.4142727272728,362.0083926320076L910.8362386363638,285.34889048710465L911.4533181818182,290.5193369537592L911.7484431818182,372.29974677367136L911.9094204545455,269.2941192239523L914.4850568181818,308.24913504347205L917.1277670454546,347.53732484579086L917.5302102272727,305.1013480387628L917.6375284090909,364.1142736123875L918.2009488636363,359.42608360014856L920.4546306818181,366.72721248166636L920.991221590909,336.4871293194592L921.9973295454546,346.89085664972663L922.4802613636364,259.38909251987934L923.8083238636364,315.95619375631213L926.3839602272727,348.4365965081379L930.1803409090909,263.9426832906902L932.1254829545455,347.6954834749922L933.0376875,314.04153530299664L933.0645170454545,332.6196820177138L938.6584772727274,293.7809042148292L939.0475056818183,305.26181169599295L941.4353352272726,371.48983400827274L942.7902272727272,264.30490799993277L944.8158579545454,340.3381166495383L951.8854431818181,373.47885858197697L954.8366931818182,318.1007791943848L955.3866988636364,339.6498243957758L957.6269659090909,265.006535358727L957.7879431818182,362.4660056508146L961.3026136363637,358.7365729995072L962.1745738636364,332.15650656074286L962.4026250000001,258.3540805131197L964.5758181818182,274.19606591388583L964.6026477272727,271.3131482228637L965.0721647727272,358.3235147856176L965.4477784090909,359.0216047251597L965.7294886363636,333.2185504194349L966.5612045454545,367.27122718514875L966.9502329545454,355.2594232959673L970.4783181818182,373.82118464959785L971.0417386363637,331.7769686859101L973.3490795454545,362.75963865965605L973.3759090909092,338.68314163573086L975.1600738636363,364.3771459958516L976.8637500000001,373.3943794363877L978.8491363636364,312.62820376828313L980.2308579545455,344.433545794338L981.2906250000001,366.7351413918659L981.4381875,132.25390051305294L982.6052727272727,338.43508691340685L986.8979999999999,325.33166440948844L987.6223977272726,336.5645838789642L988.4943579545454,361.6370250545442L991.4187784090908,223.53407782316208L993.9139261363636,365.237471813336L994.4102727272727,248.58059313893318L999.387153409091,355.4729148866609L1000.715215909091,328.7715211119503L1001.1310738636364,331.2595153488219L1004.6859886363637,361.860761994496L1005.1420909090909,354.2110849618912L1010.4677556818183,345.15732810646296L1011.09825,343.73222741112113L1011.7019147727274,350.76940249465406L1012.0775284090909,354.95231737196445L1012.1177727272727,368.34507794864476L1013.5933977272728,359.44427278172225L1015.2836590909092,333.5299486462027L1015.7934204545455,373.3996585737914L1016.2092784090909,348.63428645581007L1017.3897784090909,319.6205984596163L1017.6178295454545,344.30228735134006L1018.6239375,367.99221906159073L1018.9324772727274,335.3270875364542L1019.3483352272727,363.7725861235522L1021.0385965909092,353.5531372698024L1022.3398295454544,176.19077534228563L1022.608125,349.5402695592493L1022.7959318181818,375.3986978622852L1023.4398409090909,362.74504307471216L1026.350846590909,337.5329905822873L1028.0142784090908,314.6250918582082L1028.269159090909,371.68740194570273L1028.4301363636364,333.5729278512299L1028.6447727272728,370.99208005866967L1028.8728238636363,280.485221657902L1029.436244318182,336.3437470961362L1029.4764886363637,350.4425572445616L1029.98625,344.0541413407773L1034.1448295454545,350.2182339532301L1036.1168011363636,367.59943473665044L1036.7070511363636,335.1023990921676L1038.1156022727273,355.43968245666474L1039.7924488636363,356.4413619674742L1039.9534261363635,344.2232879139483L1044.1254204545455,297.81370260566473L1044.4742045454545,328.9791842997074L1044.9839659090908,372.0468248082325L1046.2717840909093,259.8769228234887L1047.2778920454546,373.1896012641955L1048.87425,215.51651269942522L1050.5242670454545,314.1254011057317L1051.288909090909,371.20558262150735L1052.2279431818183,316.030902646482L1052.469409090909,368.62157685728744L1054.2267443181818,339.00434632599354L1054.6560170454545,309.5245581381023L1054.7096761363637,294.8232473693788L1055.259681818182,297.67010620608926L1057.432875,373.99812451726757L1057.5804375,371.4397132541053L1060.6524204545456,296.91152200847864L1060.719494318182,370.8477630086709L1062.9061022727274,317.7982710376382L1064.274409090909,364.18879114836454L1065.4951534090908,363.61710996413603L1065.937840909091,370.4280820086133L1066.8634602272728,296.3136402219534L1068.3525,344.4811561219394L1068.8220170454547,355.22405788116157L1070.2976420454547,326.91697245277464L1070.7939886363636,344.1874537691474L1075.7976988636365,352.3751433035359L1077.7294261363636,278.306143309921L1078.0111363636363,149.49581914395094L1081.0697045454547,363.362994229421L1081.136778409091,227.25398928672075L1081.727028409091,355.62263813149184L1081.9014204545454,319.69384322687984L1083.1221647727273,171.3307439982891L1084.9197443181818,270.89322232455015L1085.9392670454545,305.89779578894377L1086.0331704545454,352.22480737417936L1086.7709829545454,344.9157759156078L1087.6831875,358.05098428204656L1088.729539772727,357.8971355110407L1089.3600340909093,340.59266688115895L1089.5880852272728,307.12447798624635L1090.0307727272727,363.9332437682897L1091.3722500000001,344.2190570551902L1095.906443181818,358.6475739888847L1096.8991363636364,374.67048829002306L1097.4893863636364,344.41652404889464L1097.771096590909,355.2210804801434L1098.8711079545456,339.7246842626482L1098.9784261363636,305.3751987107098L1101.3796704545455,371.15964093757793L1103.8882329545454,269.63621136546135L1107.3894886363637,342.17767297104L1107.8590056818182,342.2873873896897L1108.328522727273,324.5666549243033L1108.677306818182,360.9287529652938L1115.089568181818,330.85675163939595L1116.16275,346.3416946940124L1116.6725113636362,360.4892334509641L1119.5030284090908,349.97979082912207L1120.0262045454544,352.2150623546913L1121.0054829545456,347.3518201224506L1122.6286704545455,350.31063696183264L1124.667715909091,272.3770775347948L1125.2982102272726,373.72989728860557L1125.700653409091,317.00228675082326L1125.7945568181817,316.2677675373852L1126.0762670454544,355.97652050014585L1127.2970113636363,288.3030340708792L1127.323840909091,336.5955165475607L1128.853125,369.07180430646986L1129.4165454545455,303.4267004095018L1130.9458295454544,333.0517387185246L1132.3677954545453,316.1961905360222L1133.3068295454545,256.5828780159354L1134.8092840909092,295.2221418619156L1136.472715909091,373.57513124635443L1136.9824772727272,340.1261418480426L1138.042244318182,337.0328714773059L1138.3373693181818,318.6789988987148L1140.322755681818,338.51858054101467L1141.5569147727272,324.1169304382056L1141.7313068181818,372.6235040235333L1142.2142386363637,340.53637714870274L1142.724,307.4291700385511L1143.0057102272729,208.694121286273L1145.2057329545455,369.40264078369364L1146.1850113636362,370.47343339119107L1146.9228238636365,359.60030895937234L1147.835028409091,322.2020578086376L1148.4655227272729,374.64748277608305L1149.4448011363636,370.9440962392837L1152.1411704545453,342.3795744664967L1153.1338636363635,366.0665630088188L1153.7375284090908,369.23984664306045L1156.594875,260.7777060084045L1156.6082897727272,172.54187208414078L1157.775375,277.2757799811661L1160.2034488636364,363.100438721478L1160.7936988636363,369.43541940581053L1161.5449261363635,355.8365738745779L1164.3083693181818,353.3581526139751L1166.2400965909092,303.69072004035115L1167.2462045454545,309.3139772377908L1167.3401079545456,290.12859520316124L1167.5145,369.46057809330523L1169.0303693181818,354.0951734762639L1173.8731022727272,315.2279312983155L1174.5304261363638,348.78563182242215L1174.5706704545455,373.938140244456L1175.2548238636364,321.66632575728L1177.8975340909092,314.03351598232985L1179.8292613636363,327.83014626055956L1181.0231761363636,364.09014718420804L1181.3048863636363,323.38556769117713L1181.6939147727273,355.9603975927457L1182.4317272727271,356.5510658528656L1182.9951477272728,362.8114816015586L1183.5719829545455,347.41080636903644L1184.1890625,335.42091780155897L1184.9134602272727,368.61044934764504L1185.1817556818182,347.55228382814676L1185.222,326.17852784506977L1186.1744488636364,322.1249824464321L1186.3354261363636,217.04639122635126L1187.4354375,310.6094416119158L1187.4756818181818,373.4764949626988L1188.414715909091,367.4269245429896L1189.058625,372.1993793051224L1190.4940056818182,365.1518346676603L1190.6281534090908,346.3071350734681L1193.0830568181818,370.31972638028674L1194.719659090909,314.25291673094034L1195.900159090909,201.37797285616398L1195.9135738636364,367.63402069034055L1196.3026022727272,354.7444417634979L1197.0001704545455,359.10334807634354L1201.3465568181819,357.1680023036897L1201.6550965909091,366.9868160439655L1205.5185511363636,358.27032534219325L1206.3234375,290.3107573725283L1210.6698238636363,354.5478156749159L1211.2064147727274,347.02194656059146L1213.6747329545456,307.01781821250916L1213.9430284090909,354.9667128250003L1214.6405965909091,283.8174881488085L1222.649215909091,310.3068070560694L1224.9699715909092,374.3643501091283L1225.1041193181818,346.7467406094074L1225.6809545454546,370.8962818298023L1225.6943693181818,290.58463613316417L1226.6065738636364,359.610041690059L1227.7870738636364,340.4505802486092L1228.9944034090909,249.5214659050107L1230.4163693181818,335.5011671856046L1232.9517613636365,335.41810893267393L1235.6749602272728,375.6469721372123L1237.5261988636364,348.96026446763426L1240.6250113636363,373.5057583292946L1241.6311193181818,355.163065048866L1243.65675,358.75583130680025L1244.193340909091,372.1488648704253L1246.903125,320.4414201695472L1249.5860795454546,330.0483240634203L1249.8409602272727,330.85028421878815L1249.9348636363636,181.5985922962427L1251.9202500000001,359.6755357347429L1256.2800511363637,325.77561315894127L1258.2386079545454,371.74306758260354L1258.2922670454545,336.0584081504494L1259.5532556818182,348.2950804270804L1259.7008181818182,235.28198935836554L1260.2776534090908,374.6195143419318L1260.5861931818183,287.2934423275292L1260.8410738636362,370.1803103676066L1261.5118125,290.2462306320667L1264.7581874999998,341.9245517514646L1266.2740568181819,371.7172505664639L1267.065528409091,339.5143561605364L1267.1594318181817,323.74987798556685L1268.1387102272727,356.9751997878775L1269.3728693181818,326.6782677527517L1269.4801874999998,373.3872719008941L1269.7082386363636,372.34698229283094L1272.0155795454546,346.2619860172272L1272.1497272727272,369.32985245762393L1272.4985113636362,374.905204835115L1274.2424318181818,360.52060851641L1274.8058522727274,337.40356141515076L1276.1070852272726,360.20070995017886L1276.616846590909,230.40912148356438L1277.0461193181818,342.94774895347655L1278.0253977272728,355.65719424095005L1280.0376136363636,371.05043474864215L1280.4132272727272,331.8300738632679L1281.727875,346.7557605896145L1282.224221590909,340.9187765587121L1282.519346590909,353.6199269052595L1283.5791136363637,339.12839299812913L1284.920590909091,363.948778568767L1285.0547386363637,357.7351410202682L1285.9401136363638,345.7680920679122L1287.0535397727274,322.03477913327515L1290.7962613636362,363.4357351558283L1293.130431818182,320.7424642033875L1293.2109204545454,342.17274691723287L1293.4658011363638,366.36060418142006L1295.7597272727273,324.6851400360465L1296.4707102272728,363.1701618693769L1296.6451022727272,358.40692765824497L1296.8194943181818,318.0097156651318L1297.423159090909,369.6483114785515L1299.4487897727272,343.5071738138795L1299.8109886363636,337.7236355356872L1300.414653409091,367.3388217370957L1302.2524772727272,271.9420118331909L1303.5134659090909,352.6641320232302L1305.5390965909091,352.54912990890443L1305.7805625,368.2866534758359L1308.9464488636363,354.43019780144095L1310.462318181818,346.8845858499408L1311.8440397727272,373.9158498948673L1311.8708693181818,357.59562099166214L1311.884284090909,367.434288168326L1313.4269829545456,306.64465998113155L1313.5611306818182,336.22255142591894L1315.9489602272727,361.71097028348595L1317.6526363636365,323.7771591246128L1318.8465511363636,339.53372331149876L1321.7843863636363,325.042803844437L1322.119755681818,315.0901703238487L1325.8088181818182,371.6599650022108L1332.9186477272729,361.226324534975L1334.0454886363636,298.690224185586L1336.6881988636362,319.5821906886995L1338.1638238636363,342.95945140346885L1342.0675227272727,358.14483912475407L1343.3687556818181,175.96703489124775L1343.7846136363637,365.5255502839573L1344.0126647727272,346.84523008577526L1344.8712102272727,371.7993845259771L1347.6212386363636,270.15549397841096L1347.6614829545454,348.0961247328669L1349.2175965909091,367.058193791192L1349.3115,369.847943934612L1350.250534090909,339.4176784045994L1352.2895795454544,336.6475613769144L1352.5042159090908,368.7343661095947L1353.550568181818,350.0484079848975L1354.2213068181818,371.59585651988164L1354.7981420454546,340.86065403930843L1354.9054602272727,368.0216937516816L1355.9652272727274,294.02970679849386L1360.5262500000001,338.55673551373184L1361.6799204545455,370.96555160870776L1364.7787329545454,319.2432725690305L1364.9262954545454,339.952978592366L1366.2946022727272,375.99067158810794L1368.2129147727271,325.9871104527265L1370.8153806818182,362.7069969456643L1371.700755681818,327.69761329330504L1371.7141704545454,302.09772622957826L1371.7812443181817,306.69425056129694L1371.8751477272729,304.5963485240936L1373.4849204545453,368.53546220390126L1378.3813125000001,362.38927525281906L1378.7166818181818,375.75992750778096L1379.3471761363637,370.34426931105554L1382.271596590909,315.34039840847254L1383.505755681818,330.85012270882726L1386.4838352272727,361.78977310005575L1388.7911761363637,366.8251700284891L1391.3131534090908,375.72360389563255L1391.769255681818,367.2590410830453" style="fill: none;" fill="none"></path></g></g></g></g></g></g><g transform="translate(37, 377)" clip-path="url(#clip_1)"><clipPath id="clip_1"><rect width="1475" height="23"></rect></clipPath><g><g><line x1="0" y1="0" x2="0" y2="5" style="visibility: inherit;" fill="rgb(0, 0, 0)" stroke="rgb(204, 204, 204)" stroke-width="1px"></line><line x1="134.14772727272728" y1="0" x2="134.14772727272728" y2="5" style="visibility: inherit;" fill="rgb(0, 0, 0)" stroke="rgb(204, 204, 204)" stroke-width="1px"></line><line x1="268.29545454545456" y1="0" x2="268.29545454545456" y2="5" style="visibility: inherit;" fill="rgb(0, 0, 0)" stroke="rgb(204, 204, 204)" stroke-width="1px"></line><line x1="402.4431818181818" y1="0" x2="402.4431818181818" y2="5" style="visibility: inherit;" fill="rgb(0, 0, 0)" stroke="rgb(204, 204, 204)" stroke-width="1px"></line><line x1="536.5909090909091" y1="0" x2="536.5909090909091" y2="5" style="visibility: inherit;" fill="rgb(0, 0, 0)" stroke="rgb(204, 204, 204)" stroke-width="1px"></line><line x1="670.7386363636364" y1="0" x2="670.7386363636364" y2="5" style="visibility: inherit;" fill="rgb(0, 0, 0)" stroke="rgb(204, 204, 204)" stroke-width="1px"></line><line x1="804.8863636363636" y1="0" x2="804.8863636363636" y2="5" style="visibility: inherit;" fill="rgb(0, 0, 0)" stroke="rgb(204, 204, 204)" stroke-width="1px"></line><line x1="939.0340909090909" y1="0" x2="939.0340909090909" y2="5" style="visibility: inherit;" fill="rgb(0, 0, 0)" stroke="rgb(204, 204, 204)" stroke-width="1px"></line><line x1="1073.1818181818182" y1="0" x2="1073.1818181818182" y2="5" style="visibility: inherit;" fill="rgb(0, 0, 0)" stroke="rgb(204, 204, 204)" stroke-width="1px"></line><line x1="1207.3295454545455" y1="0" x2="1207.3295454545455" y2="5" style="visibility: inherit;" fill="rgb(0, 0, 0)" stroke="rgb(204, 204, 204)" stroke-width="1px"></line><line x1="1341.4772727272727" y1="0" x2="1341.4772727272727" y2="5" style="visibility: inherit;" fill="rgb(0, 0, 0)" stroke="rgb(204, 204, 204)" stroke-width="1px"></line><line x1="1475.625" y1="0" x2="1475.625" y2="5" style="visibility: inherit;" fill="rgb(0, 0, 0)" stroke="rgb(204, 204, 204)" stroke-width="1px"></line></g><g transform="translate(0, 8)"><text x="0" y="0" dx="0em" dy="0.95em" style="text-anchor: middle; visibility: hidden; font-family: Roboto, sans-serif; font-size: 12px; font-weight: 200;" fill="rgb(50, 49, 63)" stroke="none" stroke-width="1px">-10k</text><text x="134.14772727272728" y="0" dx="0em" dy="0.95em" style="text-anchor: middle; visibility: inherit; font-family: Roboto, sans-serif; font-size: 12px; font-weight: 200;" fill="rgb(50, 49, 63)" stroke="none" stroke-width="1px">0</text><text x="268.29545454545456" y="0" dx="0em" dy="0.95em" style="text-anchor: middle; visibility: inherit; font-family: Roboto, sans-serif; font-size: 12px; font-weight: 200;" fill="rgb(50, 49, 63)" stroke="none" stroke-width="1px">10k</text><text x="402.4431818181818" y="0" dx="0em" dy="0.95em" style="text-anchor: middle; visibility: inherit; font-family: Roboto, sans-serif; font-size: 12px; font-weight: 200;" fill="rgb(50, 49, 63)" stroke="none" stroke-width="1px">20k</text><text x="536.5909090909091" y="0" dx="0em" dy="0.95em" style="text-anchor: middle; visibility: inherit; font-family: Roboto, sans-serif; font-size: 12px; font-weight: 200;" fill="rgb(50, 49, 63)" stroke="none" stroke-width="1px">30k</text><text x="670.7386363636364" y="0" dx="0em" dy="0.95em" style="text-anchor: middle; visibility: inherit; font-family: Roboto, sans-serif; font-size: 12px; font-weight: 200;" fill="rgb(50, 49, 63)" stroke="none" stroke-width="1px">40k</text><text x="804.8863636363636" y="0" dx="0em" dy="0.95em" style="text-anchor: middle; visibility: inherit; font-family: Roboto, sans-serif; font-size: 12px; font-weight: 200;" fill="rgb(50, 49, 63)" stroke="none" stroke-width="1px">50k</text><text x="939.0340909090909" y="0" dx="0em" dy="0.95em" style="text-anchor: middle; visibility: inherit; font-family: Roboto, sans-serif; font-size: 12px; font-weight: 200;" fill="rgb(50, 49, 63)" stroke="none" stroke-width="1px">60k</text><text x="1073.1818181818182" y="0" dx="0em" dy="0.95em" style="text-anchor: middle; visibility: inherit; font-family: Roboto, sans-serif; font-size: 12px; font-weight: 200;" fill="rgb(50, 49, 63)" stroke="none" stroke-width="1px">70k</text><text x="1207.3295454545455" y="0" dx="0em" dy="0.95em" style="text-anchor: middle; visibility: inherit; font-family: Roboto, sans-serif; font-size: 12px; font-weight: 200;" fill="rgb(50, 49, 63)" stroke="none" stroke-width="1px">80k</text><text x="1341.4772727272727" y="0" dx="0em" dy="0.95em" style="text-anchor: middle; visibility: inherit; font-family: Roboto, sans-serif; font-size: 12px; font-weight: 200;" fill="rgb(50, 49, 63)" stroke="none" stroke-width="1px">90k</text><text x="1475.625" y="0" dx="0em" dy="0.95em" style="text-anchor: middle; visibility: hidden; font-family: Roboto, sans-serif; font-size: 12px; font-weight: 200;" fill="rgb(50, 49, 63)" stroke="none" stroke-width="1px">100k</text></g><line x1="0" y1="0" x2="1475.625" y2="0" fill="rgb(0, 0, 0)" stroke="rgb(204, 204, 204)" stroke-width="1px"></line></g></g></g></g></svg>